<svg width="42" height="42" viewBox="0 0 42 42" fill="none" xmlns="http://www.w3.org/2000/svg">
<path fill-rule="evenodd" clip-rule="evenodd" d="M21.001 20.9995C16.3454 20.9995 12.5612 17.2322 12.5612 12.5997C12.5612 7.96721 16.3454 4.19988 21.001 4.19988C25.6566 4.19988 29.4407 7.96721 29.4407 12.5997C29.4407 17.2322 25.6566 20.9995 21.001 20.9995ZM28.9304 22.4128C30.6655 21.0312 32.0036 19.2145 32.8084 17.1477C33.6133 15.081 33.8562 12.8378 33.5125 10.6466C32.6788 5.13845 28.0757 0.730736 22.5171 0.0881496C14.8481 -0.800132 8.34242 5.14276 8.34242 12.5997C8.34242 16.5686 10.1904 20.1049 13.0715 22.4128C5.99047 25.0608 0.820368 31.2788 0.00978492 39.6702C-0.0185562 39.9645 0.0148333 40.2617 0.107804 40.5423C0.200774 40.823 0.351289 41.0811 0.549722 41.3003C0.748156 41.5195 0.990139 41.6947 1.26021 41.8151C1.53028 41.9354 1.82249 41.9981 2.11815 41.9991C2.63641 42.0033 3.13753 41.8138 3.52328 41.4677C3.90903 41.1216 4.15159 40.6437 4.2034 40.1281C5.04969 30.756 12.2588 25.1995 21.001 25.1995C29.7431 25.1995 36.9522 30.756 37.7985 40.1281C37.8503 40.6437 38.0929 41.1216 38.4786 41.4677C38.8644 41.8138 39.3655 42.0033 39.8838 41.9991C41.1354 41.9991 42.1097 40.9113 41.99 39.6702C41.1815 31.2788 36.0114 25.0608 28.9283 22.4128" fill="black"/>
</svg>
