<svg width="54" height="54" viewBox="0 0 54 54" fill="none" xmlns="http://www.w3.org/2000/svg">
<path d="M47.43 15.75C47.0412 15.0764 46.4845 14.5151 45.8141 14.1207C45.1438 13.7264 44.3826 13.5125 43.605 13.5H14.805L13.5 8.41501C13.3681 7.92414 13.074 7.49238 12.6654 7.19004C12.2569 6.88771 11.758 6.73261 11.25 6.75001H6.75C6.15326 6.75001 5.58097 6.98706 5.15901 7.40902C4.73705 7.83097 4.5 8.40327 4.5 9.00001C4.5 9.59674 4.73705 10.169 5.15901 10.591C5.58097 11.013 6.15326 11.25 6.75 11.25H9.54L15.75 34.335C15.8819 34.8259 16.176 35.2576 16.5846 35.56C16.9931 35.8623 17.492 36.0174 18 36H38.25C38.6655 35.9987 39.0725 35.8825 39.426 35.664C39.7795 35.4456 40.0655 35.1336 40.2525 34.7625L47.6325 20.0025C47.9524 19.332 48.1013 18.5928 48.0659 17.8508C48.0306 17.1088 47.8121 16.387 47.43 15.75ZM36.855 31.5H19.71L16.0425 18H43.605L36.855 31.5Z" fill="black"/>
<path d="M16.875 47.25C18.739 47.25 20.25 45.739 20.25 43.875C20.25 42.011 18.739 40.5 16.875 40.5C15.011 40.5 13.5 42.011 13.5 43.875C13.5 45.739 15.011 47.25 16.875 47.25Z" fill="black"/>
<path d="M39.375 47.25C41.239 47.25 42.75 45.739 42.75 43.875C42.75 42.011 41.239 40.5 39.375 40.5C37.511 40.5 36 42.011 36 43.875C36 45.739 37.511 47.25 39.375 47.25Z" fill="black"/>
</svg>
